<svg id="svg" xmlns="http://www.w3.org/2000/svg" xmlns:xlink="http://www.w3.org/1999/xlink" width="400" height="400" viewBox="0, 0, 400,400"><g id="svgg"><path id="path0" d="M144.400 92.470 C 143.630 92.683,141.494 93.168,139.654 93.548 C 137.728 93.945,136.111 94.508,135.843 94.874 C 135.587 95.224,134.733 95.845,133.944 96.255 C 131.702 97.421,129.200 99.173,129.200 99.578 C 129.200 99.780,128.863 100.053,128.451 100.184 C 128.039 100.314,126.914 101.426,125.951 102.653 C 124.988 103.881,124.012 105.091,123.783 105.343 C 123.554 105.594,123.124 106.392,122.828 107.116 C 122.532 107.840,121.963 108.661,121.564 108.940 C 121.096 109.268,120.610 110.554,120.195 112.560 C 119.842 114.272,119.383 116.118,119.176 116.662 C 118.682 117.962,118.670 189.810,119.164 190.733 C 119.364 191.107,119.795 192.702,120.121 194.277 C 120.485 196.036,121.116 197.667,121.757 198.508 C 122.331 199.260,122.800 200.060,122.800 200.285 C 122.800 201.705,131.859 210.800,133.274 210.800 C 133.495 210.800,134.210 211.180,134.862 211.644 C 135.514 212.108,137.052 212.751,138.279 213.071 C 139.506 213.391,140.972 213.957,141.537 214.327 C 142.484 214.947,146.964 215.016,198.621 215.200 C 245.328 215.367,254.788 215.492,255.339 215.949 C 255.943 216.451,256.000 219.116,256.000 246.973 C 256.000 280.160,256.135 278.321,253.640 279.149 C 251.706 279.791,148.320 279.792,147.074 279.150 C 144.279 277.711,144.400 278.358,144.400 264.810 C 144.400 255.816,144.272 252.432,143.920 252.080 C 142.982 251.142,116.524 251.421,116.014 252.374 C 114.757 254.722,115.765 286.867,117.151 288.628 C 117.593 289.190,118.171 290.314,118.435 291.125 C 118.700 291.936,119.238 293.013,119.631 293.519 C 120.023 294.024,120.464 294.980,120.609 295.643 C 120.777 296.404,121.229 296.983,121.837 297.214 C 122.367 297.415,122.800 297.739,122.800 297.932 C 122.800 298.435,126.061 301.618,127.788 302.800 C 128.591 303.350,129.944 304.360,130.795 305.044 C 131.710 305.780,133.048 306.401,134.071 306.564 C 135.022 306.716,136.172 307.084,136.626 307.381 C 138.597 308.671,144.318 308.798,200.410 308.799 C 256.318 308.800,261.458 308.687,264.244 307.393 C 264.928 307.076,266.420 306.616,267.559 306.372 C 268.996 306.063,269.822 305.633,270.261 304.964 C 270.608 304.434,271.113 304.000,271.383 304.000 C 272.969 304.000,279.614 296.989,281.342 293.490 C 282.182 291.791,283.015 290.400,283.194 290.400 C 283.372 290.400,283.727 289.198,283.983 287.730 C 284.239 286.261,284.707 284.439,285.024 283.681 C 285.752 281.937,285.900 212.908,285.178 211.559 C 284.946 211.125,284.491 209.386,284.167 207.695 C 283.844 206.004,283.327 204.479,283.020 204.307 C 282.712 204.135,282.251 203.360,281.995 202.585 C 281.492 201.061,279.284 197.602,277.875 196.133 C 277.394 195.630,276.730 194.930,276.400 194.575 C 275.262 193.353,269.444 189.200,268.870 189.200 C 268.553 189.200,267.733 188.858,267.047 188.440 C 266.361 188.021,263.910 187.260,261.600 186.747 L 257.400 185.815 203.600 185.710 L 149.800 185.605 149.100 184.758 C 148.267 183.751,147.993 124.308,148.814 122.774 C 149.296 121.874,253.559 121.522,255.226 122.414 C 255.966 122.810,256.000 123.378,256.000 135.240 C 256.000 143.031,256.154 147.941,256.414 148.426 C 256.917 149.365,282.581 149.647,284.581 148.736 L 285.600 148.272 285.600 133.509 C 285.600 123.916,285.452 118.471,285.178 117.959 C 284.946 117.525,284.492 115.792,284.170 114.107 C 283.847 112.423,283.340 110.765,283.041 110.423 C 282.743 110.080,282.107 108.990,281.629 108.000 C 279.992 104.610,279.358 103.719,276.830 101.261 C 275.438 99.908,274.209 98.800,274.098 98.800 C 273.986 98.800,273.019 98.170,271.947 97.400 C 270.875 96.630,269.875 96.000,269.725 96.000 C 269.575 96.000,269.045 95.618,268.549 95.152 C 267.987 94.624,266.394 94.035,264.323 93.590 C 262.495 93.197,260.371 92.678,259.603 92.438 C 257.777 91.866,146.468 91.897,144.400 92.470 " stroke="none" fill="#fafafa" fill-rule="evenodd"></path><path id="path1" d="M23.600 0.600 C 23.600 0.970,23.224 1.200,22.619 1.200 C 21.213 1.200,19.654 2.000,19.381 2.861 C 19.223 3.358,18.763 3.600,17.973 3.600 C 16.988 3.600,16.800 3.761,16.800 4.600 C 16.800 5.440,16.612 5.600,15.626 5.600 C 13.777 5.600,12.400 6.279,12.400 7.190 C 12.400 7.778,12.137 8.000,11.443 8.000 C 10.758 8.000,10.416 8.282,10.237 8.994 C 10.083 9.607,9.607 10.083,8.994 10.237 C 8.282 10.416,8.000 10.758,8.000 11.443 C 8.000 12.137,7.778 12.400,7.190 12.400 C 6.279 12.400,5.600 13.777,5.600 15.626 C 5.600 16.612,5.440 16.800,4.600 16.800 C 3.761 16.800,3.600 16.988,3.600 17.973 C 3.600 18.763,3.358 19.223,2.861 19.381 C 2.000 19.654,1.200 21.213,1.200 22.619 C 1.200 23.224,0.970 23.600,0.600 23.600 C 0.068 23.600,0.000 43.467,0.000 200.000 C 0.000 356.533,0.068 376.400,0.600 376.400 C 1.021 376.400,1.200 376.825,1.200 377.826 C 1.200 379.658,1.820 380.800,2.814 380.800 C 3.421 380.800,3.600 381.074,3.600 382.000 C 3.600 383.013,3.756 383.200,4.600 383.200 C 5.460 383.200,5.601 383.381,5.605 384.500 C 5.615 386.736,6.009 387.600,7.020 387.600 C 7.734 387.600,7.976 387.853,8.073 388.700 C 8.162 389.471,8.458 389.837,9.062 389.923 C 9.586 389.997,10.021 390.428,10.168 391.017 C 10.309 391.575,10.798 392.085,11.321 392.216 C 11.820 392.341,12.403 392.839,12.615 393.322 C 12.827 393.805,13.445 394.263,13.989 394.339 C 14.533 394.416,15.512 395.001,16.165 395.639 C 16.818 396.278,17.697 396.800,18.118 396.800 C 18.540 396.800,19.239 397.250,19.671 397.800 C 20.272 398.563,20.830 398.800,22.029 398.800 C 23.159 398.800,23.600 398.969,23.600 399.400 C 23.600 399.932,43.489 400.000,200.200 400.000 C 353.783 400.000,376.800 399.925,376.800 399.423 C 376.800 399.030,377.343 398.807,378.500 398.723 C 379.813 398.628,380.290 398.395,380.595 397.700 C 380.831 397.162,381.341 396.800,381.864 396.800 C 382.345 396.800,383.264 396.275,383.906 395.633 C 384.548 394.991,385.597 394.406,386.237 394.333 C 387.067 394.238,387.435 393.955,387.522 393.346 C 387.605 392.763,388.019 392.416,388.822 392.256 C 389.753 392.069,390.000 391.808,390.000 391.010 C 390.000 390.197,390.197 390.000,391.010 390.000 C 391.808 390.000,392.069 389.753,392.256 388.822 C 392.416 388.019,392.763 387.605,393.346 387.522 C 393.955 387.435,394.238 387.067,394.333 386.237 C 394.406 385.597,394.991 384.548,395.633 383.906 C 396.275 383.264,396.800 382.345,396.800 381.864 C 396.800 381.341,397.162 380.831,397.700 380.595 C 398.395 380.290,398.628 379.813,398.723 378.500 C 398.807 377.343,399.030 376.800,399.423 376.800 C 399.925 376.800,400.000 353.783,400.000 200.200 C 400.000 43.489,399.932 23.600,399.400 23.600 C 398.969 23.600,398.800 23.159,398.800 22.029 C 398.800 20.830,398.563 20.272,397.800 19.671 C 397.250 19.239,396.800 18.540,396.800 18.118 C 396.800 17.697,396.278 16.818,395.639 16.165 C 395.001 15.512,394.416 14.533,394.339 13.989 C 394.263 13.445,393.805 12.827,393.322 12.615 C 392.839 12.403,392.341 11.820,392.216 11.321 C 392.085 10.798,391.575 10.309,391.017 10.168 C 390.428 10.021,389.997 9.586,389.923 9.062 C 389.837 8.458,389.471 8.162,388.700 8.073 C 387.853 7.976,387.600 7.734,387.600 7.020 C 387.600 6.009,386.736 5.615,384.500 5.605 C 383.381 5.601,383.200 5.460,383.200 4.600 C 383.200 3.756,383.013 3.600,382.000 3.600 C 381.074 3.600,380.800 3.421,380.800 2.814 C 380.800 1.820,379.658 1.200,377.826 1.200 C 376.825 1.200,376.400 1.021,376.400 0.600 C 376.400 0.068,356.533 0.000,200.000 0.000 C 43.467 0.000,23.600 0.068,23.600 0.600 M263.645 90.804 C 264.830 91.027,265.987 91.460,266.216 91.766 C 266.445 92.073,267.369 92.522,268.270 92.765 C 269.170 93.007,270.138 93.485,270.422 93.826 C 270.705 94.167,271.520 94.690,272.233 94.988 C 272.946 95.286,273.861 95.815,274.265 96.163 C 277.458 98.914,278.800 100.253,278.800 100.690 C 278.800 100.971,279.066 101.200,279.391 101.200 C 279.716 101.200,280.298 101.695,280.684 102.300 C 281.070 102.905,281.683 103.621,282.047 103.890 C 282.410 104.160,282.823 104.997,282.964 105.750 C 283.106 106.503,283.483 107.337,283.804 107.603 C 284.124 107.869,284.699 109.102,285.080 110.343 C 285.462 111.585,286.140 113.110,286.587 113.733 C 287.375 114.832,287.400 115.409,287.400 132.668 L 287.400 150.469 286.456 151.235 C 285.316 152.158,257.796 152.437,255.838 151.545 C 253.773 150.604,253.600 149.486,253.600 137.058 C 253.600 129.243,253.453 125.316,253.136 124.619 L 252.672 123.600 202.355 123.600 C 165.022 123.600,151.775 123.720,151.019 124.064 L 150.000 124.528 150.000 154.064 C 150.000 170.309,150.045 183.640,150.100 183.689 C 150.155 183.738,175.588 183.873,206.618 183.989 C 259.523 184.187,263.102 184.244,264.106 184.902 C 264.695 185.288,266.071 185.795,267.163 186.029 C 268.254 186.263,269.363 186.715,269.627 187.032 C 269.890 187.350,270.892 187.957,271.853 188.382 C 272.814 188.807,273.600 189.349,273.600 189.586 C 273.600 189.823,274.095 190.234,274.700 190.498 C 275.305 190.763,276.430 191.642,277.200 192.452 C 281.771 197.264,282.753 198.476,283.004 199.617 C 283.157 200.313,283.604 201.204,283.999 201.599 C 284.393 201.993,284.919 203.263,285.167 204.420 C 285.415 205.578,285.901 206.732,286.247 206.985 C 287.464 207.875,287.641 213.889,287.520 250.098 L 287.400 285.800 286.509 287.308 C 286.019 288.137,285.328 289.814,284.973 291.034 C 284.618 292.254,284.092 293.343,283.803 293.454 C 283.515 293.565,283.165 294.263,283.025 295.006 C 282.886 295.748,282.193 297.006,281.486 297.801 C 278.396 301.275,275.145 304.300,273.730 305.021 C 272.888 305.449,271.979 306.094,271.709 306.454 C 271.439 306.814,270.719 307.233,270.109 307.384 C 269.499 307.535,268.607 308.026,268.126 308.474 C 267.492 309.067,266.344 309.395,263.926 309.676 C 262.097 309.889,259.598 310.318,258.374 310.631 C 255.069 311.476,145.289 311.482,142.714 310.638 C 141.771 310.329,139.560 309.950,137.800 309.796 C 134.636 309.520,133.378 309.129,132.600 308.183 C 132.380 307.915,131.671 307.572,131.024 307.421 C 130.378 307.270,129.298 306.703,128.624 306.160 C 127.951 305.617,126.275 304.272,124.899 303.171 C 123.524 302.070,122.085 300.681,121.701 300.085 C 121.318 299.488,120.598 298.672,120.102 298.271 C 119.606 297.870,119.200 297.291,119.200 296.985 C 119.200 296.679,118.863 296.248,118.451 296.027 C 118.036 295.805,117.501 294.828,117.251 293.837 C 117.003 292.853,116.618 291.934,116.394 291.796 C 115.805 291.432,114.800 288.866,114.800 287.725 C 114.800 287.188,114.395 285.815,113.900 284.674 C 113.017 282.640,113.000 282.300,113.000 266.910 L 113.000 251.220 114.109 250.110 L 115.217 249.000 128.909 248.879 C 143.563 248.750,144.641 248.819,146.071 249.977 L 147.000 250.728 147.200 263.864 L 147.400 277.000 199.600 277.110 C 228.310 277.170,252.205 277.121,252.700 277.002 L 253.600 276.785 253.600 247.924 C 253.600 221.630,253.541 218.998,252.938 218.331 C 252.303 217.630,250.140 217.600,200.112 217.600 C 165.924 217.600,147.689 217.461,147.196 217.198 C 146.783 216.977,144.590 216.610,142.322 216.383 C 139.391 216.090,137.894 215.749,137.140 215.203 C 136.557 214.781,135.567 214.315,134.940 214.168 C 134.313 214.021,133.388 213.473,132.884 212.950 C 132.380 212.428,131.746 212.000,131.475 212.000 C 131.204 212.000,130.356 211.488,129.591 210.861 C 128.826 210.235,127.795 209.509,127.300 209.247 C 126.805 208.986,126.400 208.520,126.400 208.213 C 126.400 207.905,126.033 207.538,125.585 207.395 C 125.137 207.253,124.334 206.446,123.801 205.602 C 123.268 204.758,122.659 203.960,122.447 203.829 C 122.235 203.698,121.949 203.078,121.811 202.450 C 121.673 201.823,121.124 200.931,120.591 200.467 C 120.058 200.003,119.497 199.123,119.345 198.512 C 119.193 197.900,118.729 196.938,118.313 196.373 C 116.920 194.479,116.751 189.011,116.900 150.578 C 117.046 113.114,117.116 111.387,118.536 110.511 C 118.813 110.340,119.263 109.438,119.534 108.507 C 119.806 107.575,120.367 106.632,120.782 106.410 C 121.196 106.188,121.651 105.479,121.793 104.834 C 122.173 103.101,130.161 95.200,131.533 95.200 C 131.756 95.200,132.479 94.745,133.139 94.190 C 133.800 93.634,134.939 92.978,135.670 92.733 C 136.402 92.488,137.290 92.037,137.644 91.732 C 137.998 91.427,139.078 91.022,140.044 90.833 C 142.610 90.329,260.967 90.302,263.645 90.804 " stroke="none" fill="#545454" fill-rule="evenodd"></path><path id="path2" d="M140.044 90.833 C 139.078 91.022,137.998 91.427,137.644 91.732 C 137.290 92.037,136.402 92.488,135.670 92.733 C 134.939 92.978,133.800 93.634,133.139 94.190 C 132.479 94.745,131.756 95.200,131.533 95.200 C 130.161 95.200,122.173 103.101,121.793 104.834 C 121.651 105.479,121.196 106.188,120.782 106.410 C 120.367 106.632,119.806 107.575,119.534 108.507 C 119.263 109.438,118.813 110.340,118.536 110.511 C 117.116 111.387,117.046 113.114,116.900 150.578 C 116.751 189.011,116.920 194.479,118.313 196.373 C 118.729 196.938,119.193 197.900,119.345 198.512 C 119.497 199.123,120.058 200.003,120.591 200.467 C 121.124 200.931,121.673 201.823,121.811 202.450 C 121.949 203.078,122.235 203.698,122.447 203.829 C 122.659 203.960,123.268 204.758,123.801 205.602 C 124.334 206.446,125.137 207.253,125.585 207.395 C 126.033 207.538,126.400 207.905,126.400 208.213 C 126.400 208.520,126.805 208.986,127.300 209.247 C 127.795 209.509,128.826 210.235,129.591 210.861 C 130.356 211.488,131.204 212.000,131.475 212.000 C 131.746 212.000,132.380 212.428,132.884 212.950 C 133.388 213.473,134.313 214.021,134.940 214.168 C 135.567 214.315,136.557 214.781,137.140 215.203 C 137.894 215.749,139.391 216.090,142.322 216.383 C 144.590 216.610,146.783 216.977,147.196 217.198 C 147.689 217.461,165.924 217.600,200.112 217.600 C 250.140 217.600,252.303 217.630,252.938 218.331 C 253.541 218.998,253.600 221.630,253.600 247.924 L 253.600 276.785 252.700 277.002 C 252.205 277.121,228.310 277.170,199.600 277.110 L 147.400 277.000 147.200 263.864 L 147.000 250.728 146.071 249.977 C 144.641 248.819,143.563 248.750,128.909 248.879 L 115.217 249.000 114.109 250.110 L 113.000 251.220 113.000 266.910 C 113.000 282.300,113.017 282.640,113.900 284.674 C 114.395 285.815,114.800 287.188,114.800 287.725 C 114.800 288.866,115.805 291.432,116.394 291.796 C 116.618 291.934,117.003 292.853,117.251 293.837 C 117.501 294.828,118.036 295.805,118.451 296.027 C 118.863 296.248,119.200 296.679,119.200 296.985 C 119.200 297.291,119.606 297.870,120.102 298.271 C 120.598 298.672,121.318 299.488,121.701 300.085 C 122.085 300.681,123.524 302.070,124.899 303.171 C 126.275 304.272,127.951 305.617,128.624 306.160 C 129.298 306.703,130.378 307.270,131.024 307.421 C 131.671 307.572,132.380 307.915,132.600 308.183 C 133.378 309.129,134.636 309.520,137.800 309.796 C 139.560 309.950,141.771 310.329,142.714 310.638 C 145.289 311.482,255.069 311.476,258.374 310.631 C 259.598 310.318,262.097 309.889,263.926 309.676 C 266.344 309.395,267.492 309.067,268.126 308.474 C 268.607 308.026,269.499 307.535,270.109 307.384 C 270.719 307.233,271.439 306.814,271.709 306.454 C 271.979 306.094,272.888 305.449,273.730 305.021 C 275.145 304.300,278.396 301.275,281.486 297.801 C 282.193 297.006,282.886 295.748,283.025 295.006 C 283.165 294.263,283.515 293.565,283.803 293.454 C 284.092 293.343,284.618 292.254,284.973 291.034 C 285.328 289.814,286.019 288.137,286.509 287.308 L 287.400 285.800 287.520 250.098 C 287.641 213.889,287.464 207.875,286.247 206.985 C 285.901 206.732,285.415 205.578,285.167 204.420 C 284.919 203.263,284.393 201.993,283.999 201.599 C 283.604 201.204,283.157 200.313,283.004 199.617 C 282.753 198.476,281.771 197.264,277.200 192.452 C 276.430 191.642,275.305 190.763,274.700 190.498 C 274.095 190.234,273.600 189.823,273.600 189.586 C 273.600 189.349,272.814 188.807,271.853 188.382 C 270.892 187.957,269.890 187.350,269.627 187.032 C 269.363 186.715,268.254 186.263,267.163 186.029 C 266.071 185.795,264.695 185.288,264.106 184.902 C 263.102 184.244,259.523 184.187,206.618 183.989 C 175.588 183.873,150.155 183.738,150.100 183.689 C 150.045 183.640,150.000 170.309,150.000 154.064 L 150.000 124.528 151.019 124.064 C 151.775 123.720,165.022 123.600,202.355 123.600 L 252.672 123.600 253.136 124.619 C 253.453 125.316,253.600 129.243,253.600 137.058 C 253.600 149.486,253.773 150.604,255.838 151.545 C 257.796 152.437,285.316 152.158,286.456 151.235 L 287.400 150.469 287.400 132.668 C 287.400 115.409,287.375 114.832,286.587 113.733 C 286.140 113.110,285.462 111.585,285.080 110.343 C 284.699 109.102,284.124 107.869,283.804 107.603 C 283.483 107.337,283.106 106.503,282.964 105.750 C 282.823 104.997,282.410 104.160,282.047 103.890 C 281.683 103.621,281.070 102.905,280.684 102.300 C 280.298 101.695,279.716 101.200,279.391 101.200 C 279.066 101.200,278.800 100.971,278.800 100.690 C 278.800 100.253,277.458 98.914,274.265 96.163 C 273.861 95.815,272.946 95.286,272.233 94.988 C 271.520 94.690,270.705 94.167,270.422 93.826 C 270.138 93.485,269.170 93.007,268.270 92.765 C 267.369 92.522,266.445 92.073,266.216 91.766 C 265.987 91.460,264.830 91.027,263.645 90.804 C 260.967 90.302,142.610 90.329,140.044 90.833 M265.000 92.329 C 268.418 93.573,269.363 94.081,273.600 96.947 C 275.232 98.051,278.882 101.579,281.046 104.144 C 281.511 104.695,282.202 105.923,282.581 106.873 C 282.961 107.823,283.436 108.799,283.637 109.043 C 284.051 109.544,285.383 113.211,286.233 116.187 C 287.109 119.257,287.061 148.650,286.177 149.911 L 285.555 150.800 270.757 150.800 L 255.959 150.800 255.380 149.413 C 254.916 148.304,254.800 145.571,254.800 135.803 L 254.800 123.580 253.774 123.190 C 252.113 122.559,150.134 122.666,149.724 123.300 C 149.182 124.137,149.099 183.197,149.639 183.847 C 150.025 184.312,158.621 184.403,203.949 184.417 C 234.950 184.427,258.479 184.590,259.400 184.800 C 267.132 186.566,270.365 188.050,275.558 192.216 C 277.835 194.042,282.400 199.365,282.400 200.193 C 282.400 200.423,282.788 201.329,283.262 202.206 C 283.737 203.083,284.354 204.520,284.635 205.400 C 284.916 206.280,285.518 208.031,285.973 209.290 C 287.060 212.299,287.291 281.569,286.225 284.836 C 284.900 288.897,283.979 291.343,283.607 291.792 C 283.389 292.054,282.951 293.006,282.633 293.907 C 282.315 294.808,281.780 295.873,281.444 296.273 C 279.156 298.999,275.807 302.385,274.393 303.400 C 273.475 304.060,272.155 305.069,271.462 305.643 C 270.768 306.216,269.480 306.919,268.600 307.203 C 267.720 307.488,266.604 307.979,266.121 308.293 C 263.791 309.808,256.727 309.991,200.400 309.991 C 142.248 309.991,137.219 309.845,134.304 308.081 C 133.587 307.646,132.550 307.158,132.000 306.994 C 127.748 305.733,119.108 296.840,117.382 291.949 C 117.092 291.128,116.592 290.039,116.271 289.528 C 114.442 286.622,112.781 255.643,114.248 251.818 C 114.892 250.141,116.118 250.000,130.080 250.001 C 148.162 250.004,146.400 248.315,146.400 265.636 C 146.400 276.632,146.436 277.191,147.174 277.586 C 148.292 278.184,251.822 278.160,253.540 277.561 L 254.800 277.122 254.800 247.637 C 254.800 222.807,254.710 218.030,254.232 217.376 C 253.677 216.616,252.506 216.595,198.532 216.369 C 160.962 216.211,142.890 216.000,141.800 215.705 C 139.027 214.955,134.255 212.974,132.798 211.968 C 126.923 207.909,122.400 203.388,122.400 201.574 C 122.400 201.383,121.872 200.627,121.227 199.892 C 120.582 199.158,119.928 198.026,119.774 197.378 C 119.620 196.730,119.113 195.390,118.647 194.400 C 117.718 192.425,117.071 120.101,117.943 115.665 C 118.512 112.772,120.220 108.529,121.364 107.169 C 121.934 106.493,122.408 105.727,122.417 105.469 C 122.468 104.072,131.124 95.600,132.501 95.600 C 132.747 95.600,133.351 95.222,133.844 94.759 C 135.079 93.599,140.857 91.578,144.000 91.206 C 145.430 91.038,172.430 90.926,204.000 90.959 L 261.400 91.019 265.000 92.329 " stroke="none" fill="#888888" fill-rule="evenodd"></path><path id="path3" d="M143.200 91.773 C 138.308 92.913,136.200 93.644,134.248 94.876 C 131.268 96.757,128.332 98.938,127.296 100.039 C 124.503 103.008,122.803 105.052,122.802 105.445 C 122.801 105.690,122.279 106.546,121.642 107.347 C 121.005 108.148,119.970 110.288,119.342 112.102 L 118.200 115.400 118.200 153.600 L 118.200 191.800 119.356 195.200 C 119.992 197.070,120.903 199.050,121.380 199.600 C 121.858 200.150,122.463 201.050,122.724 201.600 C 124.693 205.745,132.082 211.987,136.798 213.489 C 137.789 213.805,138.960 214.226,139.400 214.424 C 139.840 214.622,140.740 215.012,141.400 215.292 C 142.343 215.691,154.523 215.843,198.332 216.000 C 252.919 216.196,254.076 216.216,254.632 216.976 C 255.563 218.250,255.473 276.876,254.539 277.651 C 253.987 278.109,245.084 278.218,200.800 278.306 L 147.722 278.411 146.661 277.577 L 145.600 276.742 145.600 264.400 L 145.600 252.058 144.546 251.229 C 143.137 250.121,118.077 249.926,115.986 251.007 C 114.328 251.865,114.319 251.964,114.501 267.653 C 114.700 284.749,115.164 287.647,118.657 293.600 C 118.980 294.150,119.501 295.173,119.816 295.873 C 120.131 296.574,120.706 297.384,121.094 297.673 C 121.482 297.963,122.504 298.998,123.365 299.973 C 124.890 301.701,128.132 304.400,128.682 304.400 C 128.833 304.400,129.416 304.834,129.978 305.365 C 134.348 309.492,136.143 309.600,200.400 309.598 C 259.383 309.597,261.728 309.525,266.602 307.574 C 268.214 306.928,269.718 306.400,269.944 306.400 C 270.170 306.400,270.590 306.084,270.877 305.697 C 271.165 305.310,272.459 304.275,273.753 303.397 C 278.707 300.036,282.808 293.951,285.349 286.193 L 286.400 282.986 286.382 247.193 C 286.367 216.160,286.284 211.187,285.757 209.800 C 285.422 208.920,284.909 207.390,284.616 206.400 C 283.617 203.022,280.844 198.106,278.608 195.749 C 278.163 195.281,277.378 194.428,276.863 193.854 C 273.957 190.617,268.194 187.517,262.273 186.006 L 257.546 184.800 203.853 184.800 C 162.625 184.800,150.049 184.689,149.680 184.320 C 148.720 183.360,149.018 123.326,149.985 122.808 C 151.292 122.108,253.687 122.442,254.539 123.149 C 255.127 123.637,255.200 125.022,255.200 135.662 C 255.200 145.204,255.317 147.906,255.780 149.013 L 256.359 150.400 270.680 150.394 C 278.998 150.390,285.251 150.229,285.600 150.009 C 286.114 149.684,286.216 147.358,286.313 133.860 L 286.426 118.091 285.190 114.346 C 282.404 105.909,278.781 100.813,272.800 96.923 C 271.590 96.136,270.077 95.130,269.437 94.688 C 268.798 94.245,266.548 93.324,264.437 92.642 L 260.600 91.400 203.000 91.330 C 157.371 91.275,144.943 91.367,143.200 91.773 M259.603 92.438 C 260.371 92.678,262.495 93.197,264.323 93.590 C 266.394 94.035,267.987 94.624,268.549 95.152 C 269.045 95.618,269.575 96.000,269.725 96.000 C 269.875 96.000,270.875 96.630,271.947 97.400 C 273.019 98.170,273.986 98.800,274.098 98.800 C 274.209 98.800,275.438 99.908,276.830 101.261 C 279.358 103.719,279.992 104.610,281.629 108.000 C 282.107 108.990,282.743 110.080,283.041 110.423 C 283.340 110.765,283.847 112.423,284.170 114.107 C 284.492 115.792,284.946 117.525,285.178 117.959 C 285.452 118.471,285.600 123.916,285.600 133.509 L 285.600 148.272 284.581 148.736 C 282.581 149.647,256.917 149.365,256.414 148.426 C 256.154 147.941,256.000 143.031,256.000 135.240 C 256.000 123.378,255.966 122.810,255.226 122.414 C 253.559 121.522,149.296 121.874,148.814 122.774 C 147.993 124.308,148.267 183.751,149.100 184.758 L 149.800 185.605 203.600 185.710 L 257.400 185.815 261.600 186.747 C 263.910 187.260,266.361 188.021,267.047 188.440 C 267.733 188.858,268.553 189.200,268.870 189.200 C 269.444 189.200,275.262 193.353,276.400 194.575 C 276.730 194.930,277.394 195.630,277.875 196.133 C 279.284 197.602,281.492 201.061,281.995 202.585 C 282.251 203.360,282.712 204.135,283.020 204.307 C 283.327 204.479,283.844 206.004,284.167 207.695 C 284.491 209.386,284.946 211.125,285.178 211.559 C 285.900 212.908,285.752 281.937,285.024 283.681 C 284.707 284.439,284.239 286.261,283.983 287.730 C 283.727 289.198,283.372 290.400,283.194 290.400 C 283.015 290.400,282.182 291.791,281.342 293.490 C 279.614 296.989,272.969 304.000,271.383 304.000 C 271.113 304.000,270.608 304.434,270.261 304.964 C 269.822 305.633,268.996 306.063,267.559 306.372 C 266.420 306.616,264.928 307.076,264.244 307.393 C 261.458 308.687,256.318 308.800,200.410 308.799 C 144.318 308.798,138.597 308.671,136.626 307.381 C 136.172 307.084,135.022 306.716,134.071 306.564 C 133.048 306.401,131.710 305.780,130.795 305.044 C 129.944 304.360,128.591 303.350,127.788 302.800 C 126.061 301.618,122.800 298.435,122.800 297.932 C 122.800 297.739,122.367 297.415,121.837 297.214 C 121.229 296.983,120.777 296.404,120.609 295.643 C 120.464 294.980,120.023 294.024,119.631 293.519 C 119.238 293.013,118.700 291.936,118.435 291.125 C 118.171 290.314,117.593 289.190,117.151 288.628 C 115.765 286.867,114.757 254.722,116.014 252.374 C 116.524 251.421,142.982 251.142,143.920 252.080 C 144.272 252.432,144.400 255.816,144.400 264.810 C 144.400 278.358,144.279 277.711,147.074 279.150 C 148.320 279.792,251.706 279.791,253.640 279.149 C 256.135 278.321,256.000 280.160,256.000 246.973 C 256.000 219.116,255.943 216.451,255.339 215.949 C 254.788 215.492,245.328 215.367,198.621 215.200 C 146.964 215.016,142.484 214.947,141.537 214.327 C 140.972 213.957,139.506 213.391,138.279 213.071 C 137.052 212.751,135.514 212.108,134.862 211.644 C 134.210 211.180,133.495 210.800,133.274 210.800 C 131.859 210.800,122.800 201.705,122.800 200.285 C 122.800 200.060,122.331 199.260,121.757 198.508 C 121.116 197.667,120.485 196.036,120.121 194.277 C 119.795 192.702,119.364 191.107,119.164 190.733 C 118.670 189.810,118.682 117.962,119.176 116.662 C 119.383 116.118,119.842 114.272,120.195 112.560 C 120.610 110.554,121.096 109.268,121.564 108.940 C 121.963 108.661,122.532 107.840,122.828 107.116 C 123.124 106.392,123.554 105.594,123.783 105.343 C 124.012 105.091,124.988 103.881,125.951 102.653 C 126.914 101.426,128.039 100.314,128.451 100.184 C 128.863 100.053,129.200 99.780,129.200 99.578 C 129.200 99.173,131.702 97.421,133.944 96.255 C 134.733 95.845,135.587 95.224,135.843 94.874 C 136.111 94.508,137.728 93.945,139.654 93.548 C 141.494 93.168,143.630 92.683,144.400 92.470 C 146.468 91.897,257.777 91.866,259.603 92.438 " stroke="none" fill="#b4b4b4" fill-rule="evenodd"></path><path id="path4" d="M174.100 91.100 C 189.445 91.158,214.555 91.158,229.900 91.100 C 245.245 91.042,232.690 90.994,202.000 90.994 C 171.310 90.994,158.755 91.042,174.100 91.100 M139.600 92.214 C 138.170 92.738,137.303 93.175,137.674 93.184 C 138.045 93.193,138.855 93.003,139.474 92.763 C 140.093 92.522,141.680 92.087,143.000 91.795 C 145.200 91.308,145.267 91.263,143.800 91.262 C 142.920 91.261,141.030 91.690,139.600 92.214 M259.800 91.471 C 263.151 92.218,268.041 93.835,269.200 94.580 C 275.256 98.468,275.993 99.067,279.430 102.895 C 281.407 105.096,283.529 109.315,285.190 114.346 L 286.426 118.091 286.313 133.860 C 286.216 147.358,286.114 149.684,285.600 150.009 C 285.251 150.229,278.998 150.390,270.680 150.394 L 256.359 150.400 255.780 149.013 C 255.317 147.907,255.200 145.208,255.200 135.693 C 255.200 123.441,255.117 122.764,253.620 122.825 C 253.240 122.841,253.348 122.991,253.900 123.212 L 254.800 123.574 254.800 135.800 C 254.800 145.571,254.916 148.304,255.380 149.413 L 255.959 150.800 270.757 150.800 L 285.555 150.800 286.177 149.911 C 287.061 148.650,287.109 119.257,286.233 116.187 C 285.383 113.211,284.051 109.544,283.637 109.043 C 283.436 108.799,282.961 107.823,282.581 106.873 C 281.816 104.957,281.285 104.266,277.800 100.653 C 275.573 98.344,274.433 97.449,270.200 94.684 C 268.205 93.381,261.816 91.184,260.203 91.246 C 259.399 91.277,259.265 91.352,259.800 91.471 M134.944 93.969 C 134.253 94.390,133.545 94.965,133.371 95.246 C 133.198 95.527,133.583 95.389,134.228 94.940 C 134.872 94.490,135.760 93.920,136.200 93.673 C 136.640 93.426,136.820 93.220,136.600 93.214 C 136.380 93.208,135.635 93.548,134.944 93.969 M129.526 97.613 C 126.797 99.788,123.138 103.868,122.185 105.800 C 121.860 106.460,121.145 107.612,120.597 108.359 C 120.049 109.107,119.607 110.007,119.616 110.359 C 119.624 110.712,119.893 110.398,120.213 109.661 C 120.532 108.925,121.245 107.786,121.797 107.131 C 122.349 106.475,122.801 105.727,122.802 105.469 C 122.803 105.056,124.397 103.129,127.296 100.035 C 127.793 99.505,129.271 98.290,130.580 97.335 C 131.889 96.381,132.756 95.600,132.507 95.600 C 132.257 95.600,130.916 96.506,129.526 97.613 M118.558 113.091 C 117.832 114.918,117.800 116.660,117.800 153.800 L 117.800 192.600 118.724 194.400 C 119.646 196.198,119.628 195.959,118.557 192.200 C 117.565 188.722,117.930 115.618,118.950 113.283 C 119.363 112.339,119.614 111.480,119.508 111.374 C 119.402 111.269,118.975 112.041,118.558 113.091 M175.900 122.700 C 190.035 122.758,213.165 122.758,227.300 122.700 C 241.435 122.642,229.870 122.594,201.600 122.594 C 173.330 122.594,161.765 122.642,175.900 122.700 M149.568 184.100 C 150.068 184.761,153.125 184.800,203.822 184.800 L 257.546 184.800 262.273 186.006 C 268.194 187.517,273.957 190.617,276.863 193.854 C 277.378 194.428,278.163 195.281,278.608 195.749 C 280.106 197.328,281.461 199.387,282.793 202.108 C 283.521 203.597,284.194 204.739,284.288 204.645 C 284.382 204.551,283.996 203.604,283.430 202.540 C 282.863 201.477,282.400 200.419,282.400 200.190 C 282.400 199.364,277.830 194.038,275.558 192.216 C 270.365 188.050,267.132 186.566,259.400 184.800 C 258.479 184.590,234.962 184.427,203.980 184.417 C 161.510 184.404,150.042 184.295,149.599 183.900 C 149.122 183.475,149.118 183.504,149.568 184.100 M119.825 197.378 C 120.027 198.413,122.400 201.692,122.400 200.936 C 122.400 200.775,121.972 200.184,121.450 199.622 C 120.927 199.060,120.296 198.060,120.048 197.400 L 119.595 196.200 119.825 197.378 M122.400 201.705 C 122.400 202.945,126.292 207.210,129.798 209.813 C 133.196 212.335,134.298 212.974,137.200 214.106 C 139.677 215.071,143.567 216.174,141.600 215.353 C 141.270 215.215,140.460 214.870,139.800 214.586 C 139.140 214.302,137.880 213.853,137.000 213.589 C 134.168 212.739,126.922 207.649,125.315 205.381 C 123.906 203.394,122.400 201.494,122.400 201.705 M284.965 207.400 C 285.065 207.840,285.421 208.920,285.756 209.800 C 286.866 212.717,286.686 282.406,285.561 285.413 C 285.099 286.646,284.810 287.744,284.919 287.852 C 285.027 287.960,285.449 287.183,285.858 286.124 C 286.562 284.300,286.600 282.285,286.600 247.200 L 286.600 210.200 285.691 208.400 C 285.191 207.410,284.864 206.960,284.965 207.400 M143.505 215.883 C 144.002 215.979,144.722 215.975,145.105 215.875 C 145.487 215.775,145.080 215.696,144.200 215.701 C 143.320 215.705,143.007 215.787,143.505 215.883 M200.132 216.395 C 252.538 216.596,253.677 216.616,254.232 217.376 C 254.710 218.030,254.800 222.805,254.800 247.637 L 254.800 277.122 253.540 277.561 C 251.822 278.160,148.292 278.184,147.174 277.586 C 146.436 277.191,146.400 276.632,146.400 265.636 C 146.400 252.301,146.340 251.796,144.642 250.760 C 142.963 249.737,117.566 249.583,115.629 250.585 C 113.982 251.437,114.000 251.263,114.000 266.075 C 114.000 278.506,114.817 289.570,115.499 286.365 C 115.573 286.016,115.422 284.936,115.163 283.965 C 114.659 282.076,114.136 254.308,114.571 252.574 C 115.083 250.534,116.051 250.400,130.326 250.400 C 143.040 250.400,143.528 250.428,144.546 251.229 L 145.600 252.058 145.600 264.400 L 145.600 276.742 146.661 277.577 L 147.722 278.411 200.800 278.306 C 245.084 278.218,253.987 278.109,254.539 277.651 C 255.473 276.876,255.563 218.250,254.632 216.976 C 254.075 216.215,253.057 216.200,200.332 216.195 L 146.600 216.190 200.132 216.395 M115.640 287.679 C 115.618 288.052,116.050 289.204,116.600 290.238 C 117.150 291.273,117.601 292.317,117.602 292.560 C 117.603 292.802,118.142 293.810,118.800 294.800 C 119.458 295.790,119.997 296.417,119.998 296.193 C 119.999 295.969,119.575 295.159,119.056 294.393 C 118.538 293.627,117.975 292.550,117.806 292.000 C 117.637 291.450,117.207 290.460,116.851 289.800 C 116.494 289.140,116.085 288.240,115.941 287.800 C 115.733 287.164,115.672 287.139,115.640 287.679 M282.669 292.867 C 280.947 296.479,276.893 301.266,273.753 303.397 C 272.459 304.275,271.165 305.310,270.877 305.697 C 270.590 306.084,270.171 306.400,269.946 306.400 C 269.721 306.400,268.336 306.885,266.868 307.478 C 265.401 308.070,263.480 308.693,262.600 308.861 C 261.227 309.123,261.305 309.143,263.151 308.996 C 264.333 308.902,265.683 308.577,266.151 308.274 C 266.618 307.970,267.720 307.488,268.600 307.203 C 269.480 306.919,270.768 306.216,271.462 305.643 C 272.155 305.069,273.475 304.060,274.393 303.400 C 275.807 302.385,279.156 298.999,281.444 296.273 C 281.780 295.873,282.300 294.850,282.600 294.001 C 282.899 293.151,283.451 291.988,283.826 291.416 C 284.202 290.843,284.409 290.276,284.288 290.155 C 284.167 290.033,283.438 291.254,282.669 292.867 M121.219 298.220 C 124.347 301.704,125.519 302.791,128.256 304.753 C 131.451 307.043,132.325 307.412,130.261 305.600 C 129.509 304.940,128.785 304.400,128.651 304.400 C 128.106 304.400,124.684 301.518,123.290 299.886 C 122.471 298.926,121.350 297.803,120.800 297.391 C 120.112 296.875,120.243 297.134,121.219 298.220 M134.260 308.021 C 134.969 308.475,136.457 308.902,137.660 308.998 C 139.544 309.147,139.609 309.129,138.200 308.852 C 137.320 308.678,135.903 308.236,135.051 307.868 C 132.995 306.981,132.720 307.034,134.260 308.021 M141.300 309.487 C 141.905 309.578,142.895 309.578,143.500 309.487 C 144.105 309.395,143.610 309.320,142.400 309.320 C 141.190 309.320,140.695 309.395,141.300 309.487 M257.300 309.487 C 257.905 309.578,258.895 309.578,259.500 309.487 C 260.105 309.395,259.610 309.320,258.400 309.320 C 257.190 309.320,256.695 309.395,257.300 309.487 M172.500 309.900 C 187.845 309.958,212.955 309.958,228.300 309.900 C 243.645 309.842,231.090 309.794,200.400 309.794 C 169.710 309.794,157.155 309.842,172.500 309.900 " stroke="none" fill="#a4a4a4" fill-rule="evenodd"></path></g></svg>